<svg xmlns="http://www.w3.org/2000/svg" x="0px" y="0px"
width="72" height="72"
viewBox="0 0 48 48"
style=" fill:#000000;"><linearGradient id="juOnq5JENOi_QYViuJ00Ya_27rtiDd8MFgZ_gr1" x1="13.025" x2="17.132" y1="45.902" y2="22.613" gradientTransform="matrix(1 0 0 -1 0 50)" gradientUnits="userSpaceOnUse"><stop offset="0" stop-color="#ffcf54"></stop><stop offset=".261" stop-color="#fdcb4d"></stop><stop offset=".639" stop-color="#f7c13a"></stop><stop offset="1" stop-color="#f0b421"></stop></linearGradient><path fill="url(#juOnq5JENOi_QYViuJ00Ya_27rtiDd8MFgZ_gr1)" d="M25,26H7V6c0-0.552,0.448-1,1-1h5c6.627,0,12,5.373,12,12V26z"></path><linearGradient id="juOnq5JENOi_QYViuJ00Yb_27rtiDd8MFgZ_gr2" x1="30.627" x2="34.19" y1="26.169" y2="5.96" gradientTransform="matrix(1 0 0 -1 0 50)" gradientUnits="userSpaceOnUse"><stop offset="0" stop-color="#3ebeb0"></stop><stop offset="1" stop-color="#37a595"></stop></linearGradient><path fill="url(#juOnq5JENOi_QYViuJ00Yb_27rtiDd8MFgZ_gr2)" d="M24,43h16c0.552,0,1-0.448,1-1V26	c0-0.552-0.448-1-1-1H24V43z"></path><linearGradient id="juOnq5JENOi_QYViuJ00Yc_27rtiDd8MFgZ_gr3" x1="24.488" x2="28.206" y1="27.414" y2="6.326" gradientTransform="matrix(1 0 0 -1 0 50)" gradientUnits="userSpaceOnUse"><stop offset="0" stop-color="#39b0a3"></stop><stop offset="1" stop-color="#2b8275"></stop></linearGradient><rect width="5" height="18" x="24" y="25" fill="url(#juOnq5JENOi_QYViuJ00Yc_27rtiDd8MFgZ_gr3)"></rect><linearGradient id="juOnq5JENOi_QYViuJ00Yd_27rtiDd8MFgZ_gr4" x1="15.514" x2="19.136" y1="26.501" y2="5.966" gradientTransform="matrix(1 0 0 -1 0 50)" gradientUnits="userSpaceOnUse"><stop offset="0" stop-color="#6d6d6d"></stop><stop offset=".438" stop-color="#626262"></stop><stop offset=".998" stop-color="#454545"></stop></linearGradient><path fill="url(#juOnq5JENOi_QYViuJ00Yd_27rtiDd8MFgZ_gr4)" d="M25,25H7v1c0,9.389,7.611,17,17,17h1V25z"></path></svg>